<svg width="173" height="47" viewBox="0 0 173 47" fill="none" xmlns="http://www.w3.org/2000/svg">
<path d="M78.668 26.9688C78.5508 26.4531 78.5508 26.125 78.668 25.9844C78.8086 25.8203 79.1133 25.6797 79.582 25.5625C79.7461 24.8828 79.8984 24.2383 80.0391 23.6289C80.1797 23.0195 80.3203 22.4219 80.4609 21.8359C80.8594 20.1484 81.2344 18.6484 81.5859 17.3359C81.9609 16 82.3008 14.8047 82.6055 13.75C82.9336 12.6953 83.2383 11.7461 83.5195 10.9023C83.8008 10.0586 84.0703 9.27344 84.3281 8.54688C84.5859 8.35937 84.8438 8.21875 85.1016 8.125C85.3594 8.00781 85.6055 7.91406 85.8398 7.84375C86.0977 7.75 86.3672 7.67969 86.6484 7.63281C86.8828 7.60938 87.0938 7.60938 87.2812 7.63281C87.4453 7.65625 87.5859 7.70312 87.7031 7.77344C87.8203 7.84375 87.8906 7.94922 87.9141 8.08984C87.0234 10.457 86.25 12.6484 85.5938 14.6641C84.9609 16.6797 84.4336 18.4258 84.0117 19.9023C83.5195 21.6367 83.1094 23.2188 82.7812 24.6484C83.9062 24.2031 84.9844 23.5703 86.0156 22.75C87.0703 21.9062 88.0312 20.9805 88.8984 19.9727C89.7656 18.9414 90.5391 17.875 91.2188 16.7734C91.9219 15.6484 92.4844 14.5703 92.9062 13.5391C93.3281 12.5078 93.6094 11.5586 93.75 10.6914C93.9141 9.82422 93.8906 9.13281 93.6797 8.61719C94.2422 8.35937 94.7695 8.16016 95.2617 8.01953C95.5195 7.92578 95.7656 7.85547 96 7.80859C96.6094 7.64453 96.9844 7.75 97.125 8.125C97.2891 8.47656 97.3477 9.01563 97.3008 9.74219C97.2305 11.4063 96.8086 13.0352 96.0352 14.6289C95.2852 16.2227 94.3242 17.7227 93.1523 19.1289C91.9805 20.5117 90.6797 21.7539 89.25 22.8555C87.8438 23.957 86.4492 24.8242 85.0664 25.457C85.4648 25.4102 85.8516 25.375 86.2266 25.3516C86.6016 25.3281 86.9531 25.3164 87.2812 25.3164C87.9141 25.3164 88.5 25.3867 89.0391 25.5273C89.5781 25.6445 90.0469 25.8555 90.4453 26.1602C90.8672 26.4648 91.1836 26.8633 91.3945 27.3555C91.6289 27.8477 91.7344 28.457 91.7109 29.1836C91.6641 30.3086 91.5117 31.3047 91.2539 32.1719C90.9961 33.0391 90.7148 33.8359 90.4102 34.5625C90.1289 35.3125 89.8594 36.0039 89.6016 36.6367C89.3438 37.2695 89.2031 37.9141 89.1797 38.5703C89.1562 39.2266 89.25 39.7656 89.4609 40.1875C89.6719 40.6328 89.9414 40.9844 90.2695 41.2422C90.6211 41.5234 90.9844 41.7227 91.3594 41.8398C91.7344 41.957 92.0859 42.0156 92.4141 42.0156C92.8125 42.0156 93.2461 41.9688 93.7148 41.875C94.1836 41.8047 94.5938 41.7109 94.9453 41.5938C95.0859 41.5469 95.1914 41.582 95.2617 41.6992C95.3555 41.8164 95.4023 41.9219 95.4023 42.0156C95.4023 42.1094 95.3438 42.2734 95.2266 42.5078C95.1094 42.7656 94.8867 42.9648 94.5586 43.1055C94.2305 43.2695 93.8086 43.4336 93.293 43.5977C92.7773 43.7617 92.0742 43.8438 91.1836 43.8438C90.5977 43.8438 89.9883 43.7031 89.3555 43.4219C88.7227 43.1641 88.1484 42.7891 87.6328 42.2969C87.1172 41.8281 86.6953 41.2773 86.3672 40.6445C86.0391 40.0117 85.8984 39.332 85.9453 38.6055C85.9688 37.832 86.1094 37.0586 86.3672 36.2852C86.625 35.5117 86.8945 34.7617 87.1758 34.0352C87.4805 33.3086 87.75 32.6172 87.9844 31.9609C88.2422 31.2812 88.3828 30.6484 88.4062 30.0625C88.4531 29.0078 88.1836 28.2227 87.5977 27.707C87.0117 27.168 86.0156 26.8984 84.6094 26.8984C84.1406 26.8984 83.6953 26.9219 83.2734 26.9688C82.875 27.0156 82.5469 27.0625 82.2891 27.1094C81.6562 30.2969 81.2227 32.6992 80.9883 34.3164C80.7539 35.9336 80.625 36.9883 80.6016 37.4805V38.1133C80.6016 38.3008 80.6133 38.4883 80.6367 38.6758C80.6602 38.8867 80.6953 39.0859 80.7422 39.2734C80.3203 39.5781 79.8984 39.8008 79.4766 39.9414C79.0781 40.1055 78.7148 40.2227 78.3867 40.293C77.9883 40.3867 77.625 40.4336 77.2969 40.4336C77.1328 40.4336 76.9805 40.4102 76.8398 40.3633C76.7227 40.3164 76.6055 40.2695 76.4883 40.2227C76.3477 40.1758 76.2539 40.0938 76.207 39.9766C76.582 38.4062 76.9453 36.8945 77.2969 35.4414C77.6484 33.9883 77.9531 32.6875 78.2109 31.5391C78.5156 30.2266 78.8086 28.9727 79.0898 27.7773C78.9961 27.6836 78.9141 27.5781 78.8438 27.4609C78.7734 27.3438 78.7148 27.1797 78.668 26.9688ZM113.93 27.0039C113.602 27.4727 113.18 28.0586 112.664 28.7617C112.148 29.4414 111.609 30.1328 111.047 30.8359C110.508 31.5156 109.969 32.1484 109.43 32.7344C108.914 33.2969 108.48 33.6953 108.129 33.9297C107.895 34.0703 107.625 34.1875 107.32 34.2812C107.016 34.375 106.699 34.4336 106.371 34.457C106.066 34.4805 105.773 34.457 105.492 34.3867C105.211 34.3398 104.965 34.2461 104.754 34.1055C104.543 33.9414 104.367 33.707 104.227 33.4023C104.109 33.1445 103.992 32.8047 103.875 32.3828C103.781 31.9609 103.746 31.4336 103.77 30.8008C103.207 31.7383 102.586 32.4648 101.906 32.9805C101.227 33.4727 100.582 33.8359 99.9727 34.0703C99.2695 34.3281 98.5664 34.4805 97.8633 34.5273C97.5352 34.5273 97.1836 34.4102 96.8086 34.1758C96.4336 33.9648 96.1172 33.625 95.8594 33.1562C95.6016 32.6641 95.4375 32.043 95.3672 31.293C95.2969 30.5195 95.3906 29.6055 95.6484 28.5508C95.9766 27.1211 96.4922 25.8203 97.1953 24.6484C97.9219 23.4766 98.707 22.4805 99.5508 21.6602C100.395 20.8164 101.227 20.1836 102.047 19.7617C102.867 19.3398 103.547 19.1523 104.086 19.1992C104.719 19.3164 105.234 19.5039 105.633 19.7617C105.961 19.9961 106.172 20.3477 106.266 20.8164C106.383 21.2617 106.195 21.8594 105.703 22.6094C106.031 22.5391 106.301 22.4922 106.512 22.4688C106.746 22.4453 106.922 22.4336 107.039 22.4336C107.18 22.4336 107.273 22.4453 107.32 22.4688C107.344 22.5156 107.355 22.6211 107.355 22.7852C107.355 22.9258 107.32 23.1953 107.25 23.5938C107.18 23.9922 107.074 24.5312 106.934 25.2109C106.793 25.8906 106.605 26.7695 106.371 27.8477C106.324 28.0586 106.277 28.2578 106.23 28.4453C106.207 28.6094 106.172 28.7852 106.125 28.9727C106.102 29.1367 106.066 29.3359 106.02 29.5703C105.973 29.8047 105.914 30.0977 105.844 30.4492C105.82 30.6602 105.809 30.8945 105.809 31.1523C105.832 31.3867 105.879 31.6094 105.949 31.8203C106.02 32.0312 106.125 32.207 106.266 32.3477C106.43 32.4648 106.652 32.5234 106.934 32.5234C107.168 32.5234 107.473 32.3828 107.848 32.1016C108.223 31.7969 108.621 31.4219 109.043 30.9766C109.465 30.5078 109.898 30.0039 110.344 29.4648C110.812 28.9023 111.246 28.3633 111.645 27.8477C112.043 27.332 112.395 26.875 112.699 26.4766C113.027 26.0781 113.262 25.7852 113.402 25.5977C113.59 25.3867 113.777 25.2695 113.965 25.2461C114.152 25.1992 114.293 25.2461 114.387 25.3867C114.48 25.5273 114.492 25.7383 114.422 26.0195C114.375 26.3008 114.211 26.6289 113.93 27.0039ZM103.629 28.5508C103.746 28.082 103.887 27.5312 104.051 26.8984C104.215 26.2656 104.355 25.6562 104.473 25.0703C104.59 24.4844 104.672 24.0039 104.719 23.6289C104.789 23.2305 104.777 23.043 104.684 23.0664C104.566 23.0898 104.438 23.125 104.297 23.1719C104.18 23.2188 104.027 23.2539 103.84 23.2773C103.652 23.3008 103.465 23.3359 103.277 23.3828C103.465 23.0078 103.57 22.7031 103.594 22.4688C103.641 22.2109 103.652 22.0117 103.629 21.8711C103.605 21.707 103.559 21.5781 103.488 21.4844C103.23 21.2734 102.773 21.4492 102.117 22.0117C101.484 22.5508 100.746 23.5586 99.9023 25.0352C99.5508 25.6445 99.2695 26.3008 99.0586 27.0039C98.8477 27.6836 98.6953 28.3281 98.6016 28.9375C98.5312 29.5469 98.5195 30.0859 98.5664 30.5547C98.6133 31 98.707 31.293 98.8477 31.4336C99.1055 31.6914 99.3984 31.8203 99.7266 31.8203C100.055 31.7969 100.383 31.7031 100.711 31.5391C101.062 31.3516 101.402 31.1172 101.73 30.8359C102.082 30.5547 102.387 30.2617 102.645 29.957C102.926 29.6523 103.148 29.3711 103.312 29.1133C103.5 28.8555 103.605 28.668 103.629 28.5508ZM122.016 34.8789C121.477 34.8789 121.008 34.7734 120.609 34.5625C120.234 34.375 119.93 34.1172 119.695 33.7891C119.461 33.4609 119.309 33.0859 119.238 32.6641C119.168 32.2188 119.191 31.75 119.309 31.2578C119.379 30.9297 119.496 30.4961 119.66 29.957C119.824 29.3945 119.988 28.7969 120.152 28.1641C120.34 27.5078 120.504 26.8633 120.645 26.2305C120.809 25.5742 120.914 24.9883 120.961 24.4727C121.008 23.9336 120.984 23.5 120.891 23.1719C120.797 22.8203 120.598 22.6445 120.293 22.6445C119.918 22.6445 119.531 22.7734 119.133 23.0312C118.734 23.2656 118.324 23.5938 117.902 24.0156C117.504 24.4375 117.094 24.9297 116.672 25.4922C116.273 26.0312 115.875 26.5938 115.477 27.1797C115.266 27.9766 115.09 28.6797 114.949 29.2891C114.809 29.875 114.68 30.4141 114.562 30.9062C114.469 31.375 114.375 31.7969 114.281 32.1719C114.188 32.5234 114.105 32.8633 114.035 33.1914C113.965 33.4258 113.754 33.6602 113.402 33.8945C113.051 34.1055 112.676 34.2812 112.277 34.4219C111.879 34.5625 111.539 34.6328 111.258 34.6328C110.953 34.6328 110.824 34.5273 110.871 34.3164C110.895 34.1758 110.977 33.8594 111.117 33.3672C111.234 32.875 111.387 32.3008 111.574 31.6445C111.738 30.9648 111.914 30.25 112.102 29.5C112.289 28.75 112.465 28.0352 112.629 27.3555C112.746 26.8164 112.875 26.2188 113.016 25.5625C113.133 25 113.273 24.3438 113.438 23.5938C113.625 22.8438 113.836 22.0234 114.07 21.1328C114.234 20.9922 114.398 20.8867 114.562 20.8164C114.75 20.7227 114.938 20.6523 115.125 20.6055C115.312 20.5352 115.512 20.4883 115.723 20.4648C115.91 20.4648 116.098 20.4766 116.285 20.5C116.449 20.5234 116.613 20.5703 116.777 20.6406C116.965 20.6875 117.129 20.7695 117.27 20.8867C117.199 21.0508 117.117 21.2852 117.023 21.5898C116.93 21.8711 116.836 22.1758 116.742 22.5039C116.648 22.8789 116.531 23.2656 116.391 23.6641C116.695 23.2422 117.035 22.8203 117.41 22.3984C117.809 21.9531 118.23 21.5547 118.676 21.2031C119.145 20.8516 119.637 20.5703 120.152 20.3594C120.668 20.125 121.195 20.0078 121.734 20.0078C122.18 20.0078 122.578 20.1367 122.93 20.3945C123.281 20.6523 123.551 21.0156 123.738 21.4844C123.949 21.9297 124.066 22.4688 124.09 23.1016C124.137 23.7344 124.055 24.4258 123.844 25.1758L123.457 26.7227C123.34 27.2148 123.188 27.8008 123 28.4805C122.836 29.1367 122.625 29.8633 122.367 30.6602C122.227 31.1758 122.168 31.6211 122.191 31.9961C122.238 32.3711 122.473 32.5586 122.895 32.5586C123.316 32.5586 123.844 32.3008 124.477 31.7852C125.133 31.2695 125.789 30.6484 126.445 29.9219C127.102 29.1953 127.723 28.457 128.309 27.707C128.895 26.9336 129.34 26.3125 129.645 25.8438C129.855 25.5391 130.055 25.3398 130.242 25.2461C130.43 25.1523 130.57 25.1406 130.664 25.2109C130.781 25.2812 130.84 25.4453 130.84 25.7031C130.84 25.9375 130.746 26.2422 130.559 26.6172C130.395 26.9453 130.137 27.3789 129.785 27.918C129.457 28.457 129.059 29.0312 128.59 29.6406C128.121 30.25 127.617 30.8711 127.078 31.5039C126.539 32.1133 125.977 32.6758 125.391 33.1914C124.805 33.6836 124.219 34.082 123.633 34.3867C123.07 34.7148 122.531 34.8789 122.016 34.8789ZM141.176 25.1055C141.27 24.9648 141.387 24.8828 141.527 24.8594C141.691 24.8125 141.82 24.8242 141.914 24.8945C142.008 24.9648 142.055 25.082 142.055 25.2461C142.078 25.4102 142.02 25.6328 141.879 25.9141C141.41 26.8047 140.789 27.7656 140.016 28.7969C139.266 29.8281 138.469 30.8008 137.625 31.7148C136.781 32.6055 135.961 33.3438 135.164 33.9297C134.367 34.5156 133.699 34.8086 133.16 34.8086C132.387 34.8086 131.742 34.6562 131.227 34.3516C130.711 34.0469 130.301 33.6719 129.996 33.2266C129.715 32.7812 129.516 32.3008 129.398 31.7852C129.281 31.2461 129.246 30.7539 129.293 30.3086C129.316 29.9336 129.398 29.2656 129.539 28.3047C129.68 27.3203 129.867 26.1953 130.102 24.9297C130.336 23.6406 130.594 22.2695 130.875 20.8164C131.18 19.3398 131.496 17.9219 131.824 16.5625C131.426 16.6094 131.027 16.6562 130.629 16.7031C130.23 16.75 129.867 16.7734 129.539 16.7734C128.789 16.7734 128.086 16.6914 127.43 16.5273C126.75 16.3398 126.246 16.1641 125.918 16C125.73 15.9063 125.648 15.7773 125.672 15.6133C125.695 15.4258 125.766 15.25 125.883 15.0859C126 14.8984 126.152 14.7461 126.34 14.6289C126.504 14.4883 126.656 14.418 126.797 14.418C127.242 14.4648 127.723 14.5117 128.238 14.5586C128.754 14.582 129.316 14.582 129.926 14.5586C130.371 14.5352 130.793 14.5 131.191 14.4531C131.613 14.4062 132.023 14.3477 132.422 14.2773C132.727 13.1523 133.02 12.1797 133.301 11.3594C133.605 10.5156 133.875 9.92969 134.109 9.60156C134.18 9.48437 134.332 9.39062 134.566 9.32031C134.824 9.22656 135.094 9.16797 135.375 9.14453C135.656 9.09766 135.926 9.09766 136.184 9.14453C136.441 9.16797 136.629 9.25 136.746 9.39062C136.863 9.57813 136.91 10.0586 136.887 10.832C136.863 11.6055 136.734 12.5898 136.5 13.7852C137.484 13.7852 138.352 13.8437 139.102 13.9609C139.875 14.0547 140.531 14.1719 141.07 14.3125C141.609 14.4297 142.043 14.5586 142.371 14.6992C142.699 14.8164 142.945 14.8984 143.109 14.9453C143.273 14.9922 143.355 15.1094 143.355 15.2969C143.379 15.4844 143.344 15.6836 143.25 15.8945C143.18 16.082 143.051 16.2461 142.863 16.3867C142.676 16.5273 142.465 16.5742 142.23 16.5273C141.996 16.5039 141.727 16.457 141.422 16.3867C141.141 16.3164 140.789 16.2578 140.367 16.2109C139.969 16.1641 139.488 16.1172 138.926 16.0703C138.363 16.0234 137.707 16 136.957 16C136.816 16 136.652 16.0117 136.465 16.0352C136.301 16.0352 136.125 16.0352 135.938 16.0352C135.844 16.4102 135.75 16.7852 135.656 17.1602C135.586 17.5117 135.48 17.8867 135.34 18.2852C135.035 19.2227 134.684 20.2422 134.285 21.3438C133.934 22.3047 133.512 23.4062 133.02 24.6484C132.527 25.8906 131.977 27.2148 131.367 28.6211C131.227 29.6289 131.238 30.4023 131.402 30.9414C131.59 31.457 131.812 31.832 132.07 32.0664C132.375 32.3242 132.75 32.4648 133.195 32.4883C133.547 32.5352 133.969 32.418 134.461 32.1367C134.977 31.832 135.504 31.4336 136.043 30.9414C136.582 30.4492 137.121 29.9102 137.66 29.3242C138.223 28.7383 138.738 28.1641 139.207 27.6016C139.676 27.0391 140.086 26.5352 140.438 26.0898C140.789 25.6211 141.035 25.293 141.176 25.1055ZM149.473 28.4102C149.238 29.3008 148.922 30.1328 148.523 30.9062C148.125 31.6797 147.645 32.3477 147.082 32.9102C146.543 33.4727 145.922 33.9062 145.219 34.2109C144.539 34.5391 143.789 34.7031 142.969 34.7031C142.008 34.7031 141.246 34.4922 140.684 34.0703C140.145 33.6719 139.734 33.168 139.453 32.5586C139.195 31.9492 139.043 31.2812 138.996 30.5547C138.926 29.8281 138.891 29.1484 138.891 28.5156C138.891 28.0703 138.949 27.5781 139.066 27.0391C139.16 26.5 139.301 25.9492 139.488 25.3867C139.676 24.8242 139.91 24.2617 140.191 23.6992C140.496 23.1367 140.848 22.6211 141.246 22.1523C141.387 21.7539 141.598 21.4023 141.879 21.0977C142.184 20.793 142.523 20.5469 142.898 20.3594C143.297 20.1484 143.719 19.9961 144.164 19.9023C144.609 19.7852 145.043 19.7266 145.465 19.7266C145.535 19.7266 145.594 19.7383 145.641 19.7617C145.711 19.7852 145.781 19.8086 145.852 19.832C146.156 19.8555 146.531 19.9727 146.977 20.1836C147.445 20.3945 147.891 20.7109 148.312 21.1328C148.758 21.5547 149.133 22.0938 149.438 22.75C149.742 23.3828 149.895 24.1562 149.895 25.0703C149.895 25.2578 149.883 25.4922 149.859 25.7734C149.836 26.0312 149.812 26.2539 149.789 26.4414C150.328 26.2305 150.891 25.9727 151.477 25.668C152.062 25.3633 152.625 25.0469 153.164 24.7188C153.727 24.3672 154.242 24.0156 154.711 23.6641C155.18 23.3125 155.555 22.9961 155.836 22.7148C156.07 22.5039 156.27 22.3867 156.434 22.3633C156.598 22.3398 156.715 22.3867 156.785 22.5039C156.855 22.6211 156.867 22.7852 156.82 22.9961C156.773 23.207 156.645 23.4414 156.434 23.6992C156.316 23.8398 156.012 24.1211 155.52 24.543C155.051 24.9648 154.488 25.4219 153.832 25.9141C153.176 26.4062 152.461 26.8867 151.688 27.3555C150.914 27.8242 150.176 28.1758 149.473 28.4102ZM143.531 23.0664C143.461 23.2773 143.426 23.5 143.426 23.7344C143.426 24.1094 143.449 24.5078 143.496 24.9297C143.543 25.3281 143.66 25.6914 143.848 26.0195C144.035 26.3477 144.328 26.6289 144.727 26.8633C145.148 27.0742 145.723 27.1797 146.449 27.1797C146.566 27.1797 146.684 27.1797 146.801 27.1797C146.918 27.1562 147.035 27.1328 147.152 27.1094C147.223 26.8047 147.281 26.5352 147.328 26.3008C147.398 26.043 147.434 25.8203 147.434 25.6328C147.48 25.1875 147.48 24.7305 147.434 24.2617C147.387 23.793 147.293 23.3711 147.152 22.9961C147.035 22.5977 146.871 22.2812 146.66 22.0469C146.473 21.7891 146.238 21.6602 145.957 21.6602C145.512 21.6602 145.078 21.7891 144.656 22.0469C144.258 22.2812 143.883 22.6211 143.531 23.0664ZM141.281 29.2539C141.281 29.6758 141.305 30.0977 141.352 30.5195C141.398 30.918 141.492 31.2812 141.633 31.6094C141.773 31.9141 141.961 32.1719 142.195 32.3828C142.43 32.5703 142.734 32.6641 143.109 32.6641C143.531 32.6641 143.918 32.5703 144.27 32.3828C144.621 32.1719 144.938 31.9141 145.219 31.6094C145.5 31.2812 145.746 30.918 145.957 30.5195C146.191 30.0977 146.391 29.6641 146.555 29.2188C146.391 29.2422 146.227 29.2656 146.062 29.2891C145.922 29.2891 145.758 29.2891 145.57 29.2891C144.68 29.2891 143.906 29.0312 143.25 28.5156C142.617 27.9766 142.125 27.2969 141.773 26.4766C141.633 26.9688 141.516 27.4492 141.422 27.918C141.328 28.3867 141.281 28.832 141.281 29.2539ZM151.898 33.8242C151.734 34.082 151.559 34.2461 151.371 34.3164C151.16 34.4102 150.984 34.4219 150.844 34.3516C150.68 34.3047 150.574 34.1875 150.527 34C150.48 33.8125 150.527 33.5781 150.668 33.2969C150.738 33.1562 150.902 32.8398 151.16 32.3477C151.395 31.8555 151.688 31.2695 152.039 30.5898C152.367 29.8867 152.73 29.1367 153.129 28.3398C153.527 27.5195 153.902 26.7461 154.254 26.0195C154.629 25.293 154.969 24.6484 155.273 24.0859C155.578 23.5 155.801 23.0781 155.941 22.8203C155.684 22.5859 155.508 22.4219 155.414 22.3281C155.32 22.2109 155.25 21.9766 155.203 21.625C155.156 21.3203 155.227 20.9219 155.414 20.4297C155.602 19.9375 155.848 19.4688 156.152 19.0234C156.457 18.5547 156.797 18.1562 157.172 17.8281C157.547 17.5 157.91 17.3359 158.262 17.3359C158.918 17.3359 159.375 17.5469 159.633 17.9688C159.914 18.3906 160.078 18.8242 160.125 19.2695C160.172 19.5742 160.148 19.9609 160.055 20.4297C159.961 20.8984 159.785 21.3203 159.527 21.6953C159.598 21.7422 159.691 21.8008 159.809 21.8711C159.926 21.918 160.113 21.9414 160.371 21.9414C160.746 21.9414 161.004 21.918 161.145 21.8711C161.309 21.8242 161.555 21.8008 161.883 21.8008C162.281 21.8008 162.609 21.9062 162.867 22.1172C163.125 22.3047 163.336 22.5508 163.5 22.8555C163.664 23.1367 163.781 23.4531 163.852 23.8047C163.945 24.1328 164.004 24.4375 164.027 24.7188C164.098 25.3047 163.945 25.9141 163.57 26.5469C163.195 27.1797 162.738 27.8711 162.199 28.6211C161.871 29.0898 161.543 29.6172 161.215 30.2031C160.887 30.7891 160.746 31.3164 160.793 31.7852C160.84 32.0898 160.922 32.3359 161.039 32.5234C161.156 32.7109 161.484 32.8047 162.023 32.8047C162.422 32.8047 162.855 32.6641 163.324 32.3828C163.816 32.0781 164.309 31.7031 164.801 31.2578C165.316 30.7891 165.82 30.2852 166.312 29.7461C166.805 29.1836 167.262 28.6445 167.684 28.1289C168.105 27.5898 168.457 27.1094 168.738 26.6875C169.043 26.2656 169.266 25.9609 169.406 25.7734C169.523 25.5859 169.676 25.457 169.863 25.3867C170.051 25.3164 170.215 25.3164 170.355 25.3867C170.496 25.457 170.578 25.5977 170.602 25.8086C170.648 26.0195 170.566 26.3008 170.355 26.6523C170.215 26.8867 169.969 27.2617 169.617 27.7773C169.289 28.293 168.879 28.8672 168.387 29.5C167.918 30.1328 167.391 30.7891 166.805 31.4688C166.219 32.125 165.598 32.7344 164.941 33.2969C164.309 33.8359 163.664 34.2812 163.008 34.6328C162.375 34.9844 161.766 35.1602 161.18 35.1602C160.57 35.1602 160.066 35.043 159.668 34.8086C159.27 34.5742 158.941 34.293 158.684 33.9648C158.449 33.6133 158.273 33.2383 158.156 32.8398C158.062 32.418 158.027 32.0312 158.051 31.6797C158.074 31.3984 158.145 31.1055 158.262 30.8008C158.402 30.4727 158.555 30.1445 158.719 29.8164C158.906 29.4648 159.094 29.125 159.281 28.7969C159.492 28.4453 159.68 28.1055 159.844 27.7773C160.242 27.0977 160.559 26.5234 160.793 26.0547C161.051 25.5625 161.18 25.1523 161.18 24.8242C161.18 24.6133 161.133 24.4258 161.039 24.2617C160.945 24.0977 160.793 24.0156 160.582 24.0156C160.441 24.0156 160.336 24.0273 160.266 24.0508C160.219 24.0508 160.16 24.0508 160.09 24.0508C160.043 24.0508 159.961 24.0625 159.844 24.0859C159.75 24.0859 159.598 24.0859 159.387 24.0859C159.082 24.0859 158.824 24.0391 158.613 23.9453C158.402 23.8516 158.203 23.7812 158.016 23.7344C157.922 23.8984 157.711 24.25 157.383 24.7891C157.055 25.3281 156.668 25.9609 156.223 26.6875C155.801 27.4141 155.344 28.1758 154.852 28.9727C154.383 29.7695 153.938 30.5195 153.516 31.2227C153.094 31.9023 152.742 32.4883 152.461 32.9805C152.156 33.4492 151.969 33.7305 151.898 33.8242Z" fill="#F15C60"/>
<path d="M14.9023 17.8633C14.8789 17.793 14.9492 17.6172 15.1133 17.3359C15.2773 17.0312 15.4531 16.668 15.6406 16.2461C15.8516 15.8008 16.0508 15.3086 16.2383 14.7695C16.4492 14.207 16.5898 13.6328 16.6602 13.0469C16.7539 12.4609 16.7539 11.875 16.6602 11.2891C16.5664 10.7031 16.3203 10.1406 15.9219 9.60156C15.6875 9.32031 15.3359 9.16797 14.8672 9.14453C14.4219 9.09766 13.9062 9.16797 13.3203 9.35547C12.7578 9.51953 12.1602 9.78906 11.5273 10.1641C10.918 10.5156 10.3555 10.9375 9.83984 11.4297C9.32422 11.8984 8.87891 12.4258 8.50391 13.0117C8.15234 13.5977 7.95312 14.1953 7.90625 14.8047C7.85938 15.2969 7.87109 15.7539 7.94141 16.1758C8.03516 16.5977 8.15234 16.9844 8.29297 17.3359C8.43359 17.6875 8.58594 18.0156 8.75 18.3203C8.91406 18.625 9.06641 18.8945 9.20703 19.1289C9.39453 19.457 9.6875 19.8203 10.0859 20.2188C10.4844 20.6172 10.918 21.0742 11.3867 21.5898C11.8555 22.082 12.3242 22.6445 12.793 23.2773C13.2617 23.9102 13.6719 24.625 14.0234 25.4219C14.375 26.2188 14.6211 27.1094 14.7617 28.0938C14.9023 29.0781 14.8906 30.168 14.7266 31.3633C14.4688 33.0977 14.0586 34.5391 13.4961 35.6875C12.9336 36.8594 12.3125 37.7969 11.6328 38.5C10.9766 39.2031 10.3086 39.707 9.62891 40.0117C8.94922 40.3398 8.38672 40.5508 7.94141 40.6445C7.58984 40.7148 7.16797 40.7734 6.67578 40.8203C6.20703 40.8906 5.70312 40.8789 5.16406 40.7852C4.64844 40.7148 4.12109 40.5508 3.58203 40.293C3.04297 40.0586 2.5625 39.6836 2.14062 39.168C1.64844 38.582 1.26172 37.9492 0.980469 37.2695C0.722656 36.6836 0.535156 36.0039 0.417969 35.2305C0.277344 34.4805 0.335938 33.6953 0.59375 32.875C0.78125 32.6641 0.980469 32.4766 1.19141 32.3125C1.40234 32.1484 1.61328 32.0078 1.82422 31.8906C2.05859 31.75 2.30469 31.6211 2.5625 31.5039C2.86719 31.4102 3.17188 31.3281 3.47656 31.2578C3.73438 31.2109 4.00391 31.1875 4.28516 31.1875C4.58984 31.1641 4.87109 31.1992 5.12891 31.293C4.77734 31.6914 4.53125 32.0664 4.39062 32.418C4.29688 32.6055 4.22656 32.7695 4.17969 32.9102C4.08594 33.3555 4.05078 33.8828 4.07422 34.4922C4.12109 35.125 4.25 35.7227 4.46094 36.2852C4.69531 36.8711 5.02344 37.3633 5.44531 37.7617C5.86719 38.1836 6.42969 38.4062 7.13281 38.4297C8.84375 38.4766 10.2969 37.1406 11.4922 34.4219C11.8906 33.5781 12.0898 32.7227 12.0898 31.8555C12.1133 30.9883 12.0078 30.1562 11.7734 29.3594C11.5625 28.5625 11.2695 27.8242 10.8945 27.1445C10.543 26.4414 10.1797 25.8438 9.80469 25.3516C9.42969 24.8594 8.97266 24.332 8.43359 23.7695C7.91797 23.1836 7.40234 22.5508 6.88672 21.8711C6.37109 21.1914 5.90234 20.4531 5.48047 19.6562C5.08203 18.8594 4.8125 17.9922 4.67188 17.0547C4.48438 15.7422 4.60156 14.5469 5.02344 13.4688C5.46875 12.3672 6.05469 11.4063 6.78125 10.5859C7.53125 9.76562 8.33984 9.09766 9.20703 8.58203C10.0977 8.06641 10.8828 7.73828 11.5625 7.59766C15.3359 6.84766 17.8086 7.48047 18.9805 9.49609C19.4727 10.2695 19.7422 11.0898 19.7891 11.957C19.8359 12.8242 19.7773 13.6328 19.6133 14.3828C19.4727 15.1094 19.2852 15.7305 19.0508 16.2461C18.8398 16.7383 18.6992 17.0078 18.6289 17.0547C18.4883 17.1953 18.2656 17.3477 17.9609 17.5117C17.6562 17.6758 17.1641 17.8281 16.4844 17.9688C16.2969 18.0156 16.1094 18.0391 15.9219 18.0391C15.7578 18.0391 15.582 18.0273 15.3945 18.0039C15.207 17.9805 15.043 17.9336 14.9023 17.8633ZM35.0117 26.6875C34.3086 27.7188 33.5117 28.7266 32.6211 29.7109C31.7305 30.6719 30.7812 31.5391 29.7734 32.3125C28.7891 33.0625 27.7695 33.6719 26.7148 34.1406C25.6836 34.6094 24.6758 34.8438 23.6914 34.8438C23.1758 34.8438 22.6133 34.7148 22.0039 34.457C21.418 34.2227 20.8789 33.8477 20.3867 33.332C19.8945 32.8164 19.4961 32.1484 19.1914 31.3281C18.9102 30.5078 18.8281 29.5117 18.9453 28.3398C19.0391 27.3789 19.332 26.3711 19.8242 25.3164C20.3398 24.2383 20.9609 23.2539 21.6875 22.3633C22.4375 21.4727 23.2695 20.7344 24.1836 20.1484C25.1211 19.5625 26.0586 19.2695 26.9961 19.2695C27.8867 19.2695 28.5312 19.4922 28.9297 19.9375C29.3281 20.3828 29.5039 20.9336 29.457 21.5898C29.3867 22.3164 29.1758 22.9844 28.8242 23.5938C28.4961 24.2031 28.0977 24.7539 27.6289 25.2461C27.1602 25.7383 26.6562 26.1836 26.1172 26.582C25.6016 26.9805 25.1094 27.3438 24.6406 27.6719C24.125 28.0234 23.6328 28.3633 23.1641 28.6914C22.6953 28.9961 22.2852 29.2773 21.9336 29.5352C21.957 30.1211 22.0625 30.6133 22.25 31.0117C22.4375 31.4102 22.6719 31.7383 22.9531 31.9961C23.2344 32.2305 23.5508 32.4062 23.9023 32.5234C24.2773 32.6172 24.6523 32.6641 25.0273 32.6641C25.8242 32.6641 26.6562 32.418 27.5234 31.9258C28.3906 31.4102 29.2344 30.8008 30.0547 30.0977C30.8984 29.3711 31.6719 28.6211 32.375 27.8477C33.1016 27.0742 33.6992 26.4062 34.168 25.8438C34.332 25.6562 34.4961 25.5508 34.6602 25.5273C34.8477 25.4805 34.9883 25.5039 35.082 25.5977C35.1992 25.668 35.2578 25.8086 35.2578 26.0195C35.2578 26.207 35.1758 26.4297 35.0117 26.6875ZM26.0117 21.2734C25.7305 21.2734 25.3906 21.4141 24.9922 21.6953C24.6172 21.9766 24.2422 22.3867 23.8672 22.9258C23.4922 23.4414 23.1406 24.0859 22.8125 24.8594C22.4844 25.6094 22.2383 26.4766 22.0742 27.4609C22.3555 27.25 22.6602 27.0391 22.9883 26.8281C23.3164 26.5938 23.6445 26.3477 23.9727 26.0898C24.9805 25.3164 25.6836 24.6367 26.082 24.0508C26.4805 23.4648 26.7031 22.9609 26.75 22.5391C26.7969 22.0938 26.75 21.7773 26.6094 21.5898C26.4688 21.3789 26.2695 21.2734 26.0117 21.2734ZM50.7969 27.918C50.4688 28.7617 50.0938 29.582 49.6719 30.3789C49.25 31.1758 48.7812 31.8906 48.2656 32.5234C47.75 33.1562 47.1992 33.6602 46.6133 34.0352C46.0273 34.4102 45.3945 34.5977 44.7148 34.5977C43.6133 34.5977 42.7812 34.2344 42.2188 33.5078C41.6562 32.7578 41.2695 31.8438 41.0586 30.7656C40.7305 31.2578 40.3789 31.75 40.0039 32.2422C39.6289 32.7344 39.2305 33.168 38.8086 33.543C38.3867 33.918 37.9531 34.2227 37.5078 34.457C37.0625 34.6914 36.6172 34.8086 36.1719 34.8086C35.5625 34.8086 35.0469 34.6797 34.625 34.4219C34.2031 34.1641 33.8516 33.8125 33.5703 33.3672C33.3125 32.8984 33.125 32.3711 33.0078 31.7852C32.8906 31.1758 32.832 30.5312 32.832 29.8516V29.4297C32.832 28.5625 32.9023 27.6719 33.043 26.7578C33.1836 25.8438 33.3359 25 33.5 24.2266C33.6875 23.4531 33.875 22.7852 34.0625 22.2227C34.25 21.6367 34.3906 21.25 34.4844 21.0625C34.6484 20.8281 35 20.6055 35.5391 20.3945C36.1016 20.1602 36.6523 20.0664 37.1914 20.1133C37.4492 20.1367 37.5781 20.2422 37.5781 20.4297C37.6016 20.6172 37.5781 20.8516 37.5078 21.1328C37.4141 21.5312 37.25 22.1289 37.0156 22.9258C36.7812 23.7227 36.5352 24.5898 36.2773 25.5273C36.043 26.4648 35.832 27.3906 35.6445 28.3047C35.457 29.2188 35.3633 29.9805 35.3633 30.5898C35.3633 31.3398 35.4805 31.8789 35.7148 32.207C35.9492 32.5352 36.3125 32.6992 36.8047 32.6992C37.3906 32.6992 38.0352 32.3711 38.7383 31.7148C39.4648 31.0586 40.168 29.9453 40.8477 28.375C40.8242 28.2344 40.8125 28.0938 40.8125 27.9531C40.8125 27.8125 40.8125 27.6602 40.8125 27.4961C40.8125 26.4414 40.8477 25.4336 40.918 24.4727C41.0117 23.5117 41.1758 22.668 41.4102 21.9414C41.668 21.2148 42.0078 20.6406 42.4297 20.2188C42.875 19.7969 43.4492 19.5859 44.1523 19.5859C44.4336 19.5859 44.668 19.668 44.8555 19.832C45.043 19.9961 45.1367 20.2305 45.1367 20.5352C45.1367 21.2852 44.8672 22.3516 44.3281 23.7344C43.8125 25.0938 43.1914 26.5938 42.4648 28.2344C42.3945 28.3281 42.3477 28.4219 42.3242 28.5156C42.3945 28.9609 42.4766 29.4297 42.5703 29.9219C42.6875 30.4141 42.8398 30.8711 43.0273 31.293C43.2148 31.6914 43.4375 32.0312 43.6953 32.3125C43.9531 32.5703 44.2578 32.6992 44.6094 32.6992C45.125 32.6992 45.5938 32.4531 46.0156 31.9609C46.4609 31.4688 46.8477 30.8711 47.1758 30.168C47.5273 29.4648 47.832 28.7266 48.0898 27.9531C48.3477 27.1562 48.5469 26.4531 48.6875 25.8438C48.6172 25.5859 48.5586 25.3398 48.5117 25.1055C48.4648 24.8477 48.4414 24.5547 48.4414 24.2266C48.4414 23.5 48.5469 22.8789 48.7578 22.3633C48.9688 21.8477 49.2383 21.4258 49.5664 21.0977C49.918 20.7461 50.2812 20.4883 50.6562 20.3242C51.0547 20.1602 51.418 20.0781 51.7461 20.0781C52.332 20.0781 52.625 20.3359 52.625 20.8516C52.625 21.2266 52.5312 21.8828 52.3438 22.8203C52.1562 23.7344 51.8867 24.7773 51.5352 25.9492C51.957 26.1367 52.4961 26.2305 53.1523 26.2305C53.7617 26.2305 54.3242 26.1602 54.8398 26.0195C55.3555 25.8555 55.8242 25.6562 56.2461 25.4219C56.668 25.1875 57.0547 24.9297 57.4062 24.6484C57.7578 24.3672 58.0977 24.0977 58.4258 23.8398C58.6836 23.6523 58.8945 23.6406 59.0586 23.8047C59.2227 23.9688 59.1992 24.2266 58.9883 24.5781C58.8008 24.8828 58.4727 25.2344 58.0039 25.6328C57.5586 26.0312 57.0078 26.418 56.3516 26.793C55.7188 27.1445 55.0039 27.4492 54.207 27.707C53.4336 27.9414 52.6133 28.0586 51.7461 28.0586C51.6055 28.0586 51.4531 28.0469 51.2891 28.0234C51.125 28 50.9609 27.9648 50.7969 27.918ZM73.7891 27.0039C73.4609 27.4727 73.0391 28.0586 72.5234 28.7617C72.0078 29.4414 71.4688 30.1328 70.9062 30.8359C70.3672 31.5156 69.8281 32.1484 69.2891 32.7344C68.7734 33.2969 68.3398 33.6953 67.9883 33.9297C67.7539 34.0703 67.4844 34.1875 67.1797 34.2812C66.875 34.375 66.5586 34.4336 66.2305 34.457C65.9258 34.4805 65.6328 34.457 65.3516 34.3867C65.0703 34.3398 64.8242 34.2461 64.6133 34.1055C64.4023 33.9414 64.2266 33.707 64.0859 33.4023C63.9688 33.1445 63.8516 32.8047 63.7344 32.3828C63.6406 31.9609 63.6055 31.4336 63.6289 30.8008C63.0664 31.7383 62.4453 32.4648 61.7656 32.9805C61.0859 33.4727 60.4414 33.8359 59.832 34.0703C59.1289 34.3281 58.4258 34.4805 57.7227 34.5273C57.3945 34.5273 57.043 34.4102 56.668 34.1758C56.293 33.9648 55.9766 33.625 55.7188 33.1562C55.4609 32.6641 55.2969 32.043 55.2266 31.293C55.1562 30.5195 55.25 29.6055 55.5078 28.5508C55.8359 27.1211 56.3516 25.8203 57.0547 24.6484C57.7812 23.4766 58.5664 22.4805 59.4102 21.6602C60.2539 20.8164 61.0859 20.1836 61.9062 19.7617C62.7266 19.3398 63.4062 19.1523 63.9453 19.1992C64.5781 19.3164 65.0938 19.5039 65.4922 19.7617C65.8203 19.9961 66.0312 20.3477 66.125 20.8164C66.2422 21.2617 66.0547 21.8594 65.5625 22.6094C65.8906 22.5391 66.1602 22.4922 66.3711 22.4688C66.6055 22.4453 66.7812 22.4336 66.8984 22.4336C67.0391 22.4336 67.1328 22.4453 67.1797 22.4688C67.2031 22.5156 67.2148 22.6211 67.2148 22.7852C67.2148 22.9258 67.1797 23.1953 67.1094 23.5938C67.0391 23.9922 66.9336 24.5312 66.793 25.2109C66.6523 25.8906 66.4648 26.7695 66.2305 27.8477C66.1836 28.0586 66.1367 28.2578 66.0898 28.4453C66.0664 28.6094 66.0312 28.7852 65.9844 28.9727C65.9609 29.1367 65.9258 29.3359 65.8789 29.5703C65.832 29.8047 65.7734 30.0977 65.7031 30.4492C65.6797 30.6602 65.668 30.8945 65.668 31.1523C65.6914 31.3867 65.7383 31.6094 65.8086 31.8203C65.8789 32.0312 65.9844 32.207 66.125 32.3477C66.2891 32.4648 66.5117 32.5234 66.793 32.5234C67.0273 32.5234 67.332 32.3828 67.707 32.1016C68.082 31.7969 68.4805 31.4219 68.9023 30.9766C69.3242 30.5078 69.7578 30.0039 70.2031 29.4648C70.6719 28.9023 71.1055 28.3633 71.5039 27.8477C71.9023 27.332 72.2539 26.875 72.5586 26.4766C72.8867 26.0781 73.1211 25.7852 73.2617 25.5977C73.4492 25.3867 73.6367 25.2695 73.8242 25.2461C74.0117 25.1992 74.1523 25.2461 74.2461 25.3867C74.3398 25.5273 74.3516 25.7383 74.2812 26.0195C74.2344 26.3008 74.0703 26.6289 73.7891 27.0039ZM63.4883 28.5508C63.6055 28.082 63.7461 27.5312 63.9102 26.8984C64.0742 26.2656 64.2148 25.6562 64.332 25.0703C64.4492 24.4844 64.5312 24.0039 64.5781 23.6289C64.6484 23.2305 64.6367 23.043 64.543 23.0664C64.4258 23.0898 64.2969 23.125 64.1562 23.1719C64.0391 23.2188 63.8867 23.2539 63.6992 23.2773C63.5117 23.3008 63.3242 23.3359 63.1367 23.3828C63.3242 23.0078 63.4297 22.7031 63.4531 22.4688C63.5 22.2109 63.5117 22.0117 63.4883 21.8711C63.4648 21.707 63.418 21.5781 63.3477 21.4844C63.0898 21.2734 62.6328 21.4492 61.9766 22.0117C61.3438 22.5508 60.6055 23.5586 59.7617 25.0352C59.4102 25.6445 59.1289 26.3008 58.918 27.0039C58.707 27.6836 58.5547 28.3281 58.4609 28.9375C58.3906 29.5469 58.3789 30.0859 58.4258 30.5547C58.4727 31 58.5664 31.293 58.707 31.4336C58.9648 31.6914 59.2578 31.8203 59.5859 31.8203C59.9141 31.7969 60.2422 31.7031 60.5703 31.5391C60.9219 31.3516 61.2617 31.1172 61.5898 30.8359C61.9414 30.5547 62.2461 30.2617 62.5039 29.957C62.7852 29.6523 63.0078 29.3711 63.1719 29.1133C63.3594 28.8555 63.4648 28.668 63.4883 28.5508Z" fill="black"/>
</svg>
